<?xml version="1.0" encoding="UTF-8"?>
<svg width="99px" height="99px" viewBox="0 0 99 99" version="1.1" xmlns="http://www.w3.org/2000/svg" xmlns:xlink="http://www.w3.org/1999/xlink">
    <title>7A9C3361-993B-4C63-AA1F-CE420FE6CA67</title>
    <g id="booking-tabs" stroke="none" stroke-width="1" fill="none" fill-rule="evenodd">
        <g id="cruise" transform="translate(-163.000000, -210.000000)">
            <g id="Group-4-Copy" transform="translate(163.000000, 210.000000)">
                <path d="M99,49.5006714 C99,22.1626358 76.8376648,0 49.5,0 C22.1623352,0 0,22.1626358 0,49.5006714 C0,76.8373642 22.1623352,99 49.5,99 C76.8376648,99 99,76.8373642 99,49.5006714" id="Fill-56" fill="#D8D9EB"></path>
                <path d="M78.8245618,28.2181794 C78.2319523,28.0478248 77.6138687,27.9230769 76.9649479,27.9230769 L21.4031182,27.9230769 C21.030391,27.9230769 20.672412,27.9767319 20.3157737,28.0357524 C18.9508949,28.259762 17.7254536,28.8754532 16.7574354,29.7862468 C15.4354605,31.02836 14.5961538,32.7815371 14.5961538,34.7386033 L14.5961538,68.0744546 C14.5961538,68.2676126 14.6363762,68.4513809 14.6538059,68.6431975 C14.9460884,72.125407 17.8420984,74.8846154 21.4031182,74.8846154 L76.9649479,74.8846154 C77.9745292,74.8846154 78.9237769,74.6498748 79.7925799,74.250145 C82.1308399,73.1743623 83.7692308,70.816225 83.7692308,68.0744546 L83.7692308,34.7386033 C83.7692308,31.6319788 81.6696235,29.0350768 78.8245618,28.2181794" id="Fill-57" fill="#0033A0"></path>
                <path d="M79.4139099,28.2181794 C78.8158753,28.0478248 78.1921333,27.9230769 77.5372718,27.9230769 L49.5,27.9230769 L49.5,74.8846154 L77.5372718,74.8846154 C78.5560955,74.8846154 79.5140334,74.6498748 80.3907901,74.250145 C82.7504562,73.1743623 84.4038462,70.816225 84.4038462,68.0744546 L84.4038462,34.7386033 C84.4038462,31.6319788 82.2850175,29.0350768 79.4139099,28.2181794" id="Fill-58" fill="#002244"></path>
                <path d="M43.4718648,48.8653846 C41.8936204,48.8653846 40.6153846,50.001971 40.6153846,51.4032069 C40.6153846,52.8057213 41.8936204,53.9423077 43.4718648,53.9423077 C45.0486873,53.9423077 46.3269231,52.8057213 46.3269231,51.4032069 C46.3269231,50.001971 45.0486873,48.8653846 43.4718648,48.8653846" id="Fill-60" fill="#A4D7EF"></path>
                <path d="M33.3158855,48.8653846 C31.7400925,48.8653846 30.4615385,50.001971 30.4615385,51.4032069 C30.4615385,52.8057213 31.7400925,53.9423077 33.3158855,53.9423077 C34.8945229,53.9423077 36.1730769,52.8057213 36.1730769,51.4032069 C36.1730769,50.001971 34.8945229,48.8653846 33.3158855,48.8653846" id="Fill-61" fill="#A4D7EF"></path>
                <path d="M23.797366,48.8653846 C22.2205435,48.8653846 20.9423077,50.001971 20.9423077,51.4032069 C20.9423077,52.8057213 22.2205435,53.9423077 23.797366,53.9423077 C25.3756104,53.9423077 26.6538462,52.8057213 26.6538462,51.4032069 C26.6538462,50.001971 25.3756104,48.8653846 23.797366,48.8653846" id="Fill-62" fill="#A4D7EF"></path>
                <path d="M99,49.2500335 C99,47.2053663 98.8738883,45.1931113 98.6364226,43.214619 L81.8917377,29.1923077 C83.1233394,30.4253203 83.8920843,32.1215568 83.8920843,34.0095652 L83.8920843,67.5710076 C83.8920843,70.3314434 82.2526319,72.7056342 79.912857,73.7900911 C79.0434911,74.1925421 78.0936284,74.4288808 77.083393,74.4288808 L49.2824669,74.4288808 L21.4855655,74.4288808 C20.6229077,74.4288808 19.7991567,74.2627684 19.0411448,73.9656569 L19.0384615,73.9670075 L51.2304905,99 C77.7622497,98.104614 99,76.1750859 99,49.2500335" id="Fill-63" fill="#A4D7EF"></path>
                <path d="M99,49.2500335 C99,47.2053663 98.8738883,45.1931113 98.6364226,43.214619 L81.8917377,29.1923077 C83.1233394,30.4253203 83.8920843,32.1215568 83.8920843,34.0095652 L83.8920843,67.5710076 C83.8920843,70.3314434 82.2526319,72.7056342 79.912857,73.7900911 C79.0434911,74.1925421 78.0936284,74.4288808 77.083393,74.4288808 L49.2824669,74.4288808 L21.4855655,74.4288808 C20.6229077,74.4288808 19.7991567,74.2627684 19.0411448,73.9656569 L19.0384615,73.9670075 L51.2304905,99 C77.7622497,98.104614 99,76.1750859 99,49.2500335" id="Fill-64" fill="#B6B8DC"></path>
            </g>
        </g>
    </g>
</svg>