<?xml version="1.0" encoding="UTF-8"?>
<svg width="20px" height="32px" viewBox="0 0 20 32" version="1.1" xmlns="http://www.w3.org/2000/svg" xmlns:xlink="http://www.w3.org/1999/xlink">
    <title>X Global Icons/Digital/phone</title>
    <defs>
        <path d="M-3.53066667,13.9645416 L-3.53066667,16.6242116 C-3.53066667,16.8999091 -3.75466667,17.1269541 -4.02666667,17.1269541 C-4.28266667,17.1269541 -4.50666667,16.8999091 -4.50666667,16.6242116 L-4.50666667,13.9645416 C-4.50666667,13.6888441 -4.28266667,13.4780166 -4.02666667,13.4780166 C-3.75466667,13.4780166 -3.53066667,13.6888441 -3.53066667,13.9645416 M-3.53066667,18.0351341 C-3.53066667,18.3108316 -3.75466667,18.5216591 -4.02666667,18.5216591 C-4.28266667,18.5216591 -4.50666667,18.3108316 -4.50666667,18.0351341 C-4.50666667,17.7594366 -4.28266667,17.5323916 -4.02666667,17.5323916 C-3.75466667,17.5323916 -3.53066667,17.7594366 -3.53066667,18.0351341 M-6.66666667,21.959769 C-6.66666667,23.8247815 -5.16266667,25.333009 -3.32266667,25.333009 L-1.37066667,25.333009 L-1.37066667,6.66666667 L-3.32266667,6.66666667 C-5.16266667,6.66666667 -6.66666667,8.17489415 -6.66666667,10.0399066 L-6.66666667,21.959769 Z M21.3653333,16.0082709 C21.3653333,15.2622659 21.9573333,14.6622184 22.6933333,14.6622184 C23.4293333,14.6622184 24.0213333,15.2622659 24.0213333,16.0082709 C24.0213333,16.7380584 23.4293333,17.3381059 22.6933333,17.3381059 C21.9573333,17.3381059 21.3653333,16.7380584 21.3653333,16.0082709 L21.3653333,16.0082709 Z M20.0533333,25.3333333 L22.0053333,25.3333333 C23.8453333,25.3333333 25.3333333,23.8251058 25.3333333,21.9600934 L25.3333333,10.040231 C25.3333333,8.1752185 23.8453333,6.66699102 22.0053333,6.66699102 L20.0533333,6.66699102 L20.0533333,25.3333333 Z M0.229493333,25.3333333 L18.4534933,25.3333333 L18.4534933,6.66699102 L0.229493333,6.66699102 L0.229493333,25.3333333 Z" id="path-1"></path>
    </defs>
    <g id="E+" stroke="none" stroke-width="1" fill="none" fill-rule="evenodd">
        <g id="1302_MC_Economy+_Coupon_desktop" transform="translate(-141.000000, -2578.000000)">
            <g id="Group-2" transform="translate(111.000000, 2544.000000)">
                <g id="X-Global-Icons/Digital/phone" transform="translate(30.666667, 34.000000)">
                    <mask id="mask-2" fill="white">
                        <use xlink:href="#path-1"></use>
                    </mask>
                    <use id="Mask" fill="#002244" transform="translate(9.333333, 16.000000) rotate(-270.000000) translate(-9.333333, -16.000000) " xlink:href="#path-1"></use>
                </g>
            </g>
        </g>
    </g>
</svg>